REM DIRINDEX 1\6,1\2\7,1\2\8,1\2\9,1\3\10,1\3\11,1\4\12,1\4\13,1\4\14,1\5\15,1\5\16,1\5\17
REM DIRNAME folder01,folder02,folder03,folder04,folder05,folder06,folder07,folder08,folder09,folder10,folder11,folder12,folder13,folder14,folder15,folder16,folder17
TITLE ""
FILE "P2Q_j_1338-1351.mp3" MP3
  TRACK 01 AUDIO
    TITLE "12:cjc040_0759"
    INDEX 01 00:00:00
  TRACK 02 AUDIO
    TITLE "0:"
    INDEX 01 00:01:73
  TRACK 03 AUDIO
    TITLE "13:cjc040_0760"
    INDEX 01 00:02:53
  TRACK 04 AUDIO
    TITLE "0:"
    INDEX 01 00:04:17
  TRACK 05 AUDIO
    TITLE "14:cjc040_0761"
    INDEX 01 00:04:72
  TRACK 06 AUDIO
    TITLE "0:"
    INDEX 01 00:09:24
  TRACK 07 AUDIO
    TITLE "12:cjc040_0762"
    INDEX 01 00:10:12
  TRACK 08 AUDIO
    TITLE "0:"
    INDEX 01 00:11:42
  TRACK 09 AUDIO
    TITLE "13:cjc040_0763"
    INDEX 01 00:12:30
  TRACK 10 AUDIO
    TITLE "0:"
    INDEX 01 00:15:28
  TRACK 11 AUDIO
    TITLE "14:cjc040_0764"
    INDEX 01 00:16:08
  TRACK 12 AUDIO
    TITLE "0:"
    INDEX 01 00:21:37
  TRACK 13 AUDIO
    TITLE "12:cjc040_0765"
    INDEX 01 00:22:17
  TRACK 14 AUDIO
    TITLE "0:"
    INDEX 01 00:23:36
  TRACK 15 AUDIO
    TITLE "13:cjc040_0766"
    INDEX 01 00:24:22
  TRACK 16 AUDIO
    TITLE "0:"
    INDEX 01 00:26:01
  TRACK 17 AUDIO
    TITLE "14:cjc040_0767"
    INDEX 01 00:26:56
  TRACK 18 AUDIO
    TITLE "0:"
    INDEX 01 00:30:28
  TRACK 19 AUDIO
    TITLE "12:cjc040_0768"
    INDEX 01 00:31:00
  TRACK 20 AUDIO
    TITLE "0:"
    INDEX 01 00:32:31
  TRACK 21 AUDIO
    TITLE "13:cjc040_0769"
    INDEX 01 00:33:11
  TRACK 22 AUDIO
    TITLE "0:"
    INDEX 01 00:34:20
  TRACK 23 AUDIO
    TITLE "14:cjc040_0770"
    INDEX 01 00:35:02
  TRACK 24 AUDIO
    TITLE "0:"
    INDEX 01 00:39:60
  TRACK 25 AUDIO
    TITLE "12:cjc040_0771"
    INDEX 01 00:40:38
  TRACK 26 AUDIO
    TITLE "0:"
    INDEX 01 00:41:67
  TRACK 27 AUDIO
    TITLE "13:cjc040_0772"
    INDEX 01 00:42:45
  TRACK 28 AUDIO
    TITLE "0:"
    INDEX 01 00:43:52
  TRACK 29 AUDIO
    TITLE "14:cjc040_0773"
    INDEX 01 00:44:32
  TRACK 30 AUDIO
    TITLE "0:"
    INDEX 01 00:49:65
  TRACK 31 AUDIO
    TITLE "12:cjc040_0774"
    INDEX 01 00:50:44
  TRACK 32 AUDIO
    TITLE "0:"
    INDEX 01 00:52:16
  TRACK 33 AUDIO
    TITLE "13:cjc040_0775"
    INDEX 01 00:53:04
  TRACK 34 AUDIO
    TITLE "0:"
    INDEX 01 00:55:04
  TRACK 35 AUDIO
    TITLE "14:cjc040_0776"
    INDEX 01 00:55:65
  TRACK 36 AUDIO
    TITLE "0:"
    INDEX 01 01:00:27
  TRACK 37 AUDIO
    TITLE "12:cjc040_0777"
    INDEX 01 01:01:07
  TRACK 38 AUDIO
    TITLE "0:"
    INDEX 01 01:02:48
  TRACK 39 AUDIO
    TITLE "13:cjc040_0778"
    INDEX 01 01:03:27
  TRACK 40 AUDIO
    TITLE "0:"
    INDEX 01 01:04:48
  TRACK 41 AUDIO
    TITLE "14:cjc040_0779"
    INDEX 01 01:05:22
  TRACK 42 AUDIO
    TITLE "0:"
    INDEX 01 01:10:45
  TRACK 43 AUDIO
    TITLE "12:cjc040_0780"
    INDEX 01 01:11:25
  TRACK 44 AUDIO
    TITLE "0:"
    INDEX 01 01:12:64
  TRACK 45 AUDIO
    TITLE "13:cjc040_0781"
    INDEX 01 01:13:44
  TRACK 46 AUDIO
    TITLE "0:"
    INDEX 01 01:17:51
  TRACK 47 AUDIO
    TITLE "14:cjc040_0782"
    INDEX 01 01:18:29
  TRACK 48 AUDIO
    TITLE "0:"
    INDEX 01 01:23:05
  TRACK 49 AUDIO
    TITLE "12:cjc040_0783"
    INDEX 01 01:23:56
  TRACK 50 AUDIO
    TITLE "0:"
    INDEX 01 01:26:23
  TRACK 51 AUDIO
    TITLE "13:cjc040_0784"
    INDEX 01 01:27:03
  TRACK 52 AUDIO
    TITLE "0:"
    INDEX 01 01:28:72
  TRACK 53 AUDIO
    TITLE "14:cjc040_0785"
    INDEX 01 01:29:48
  TRACK 54 AUDIO
    TITLE "0:"
    INDEX 01 01:33:17
  TRACK 55 AUDIO
    TITLE "12:cjc040_0786"
    INDEX 01 01:33:72
  TRACK 56 AUDIO
    TITLE "0:"
    INDEX 01 01:36:01
  TRACK 57 AUDIO
    TITLE "13:cjc040_0787"
    INDEX 01 01:36:56
  TRACK 58 AUDIO
    TITLE "0:"
    INDEX 01 01:38:32
  TRACK 59 AUDIO
    TITLE "14:cjc040_0788"
    INDEX 01 01:39:10
  TRACK 60 AUDIO
    TITLE "0:"
    INDEX 01 01:42:06
  TRACK 61 AUDIO
    TITLE "12:cjc040_0789"
    INDEX 01 01:42:57
  TRACK 62 AUDIO
    TITLE "0:"
    INDEX 01 01:44:01
  TRACK 63 AUDIO
    TITLE "13:cjc040_0790"
    INDEX 01 01:44:60
  TRACK 64 AUDIO
    TITLE "0:"
    INDEX 01 01:46:25
  TRACK 65 AUDIO
    TITLE "14:cjc040_0791"
    INDEX 01 01:47:03
  TRACK 66 AUDIO
    TITLE "0:"
    INDEX 01 01:51:32
  TRACK 67 AUDIO
    TITLE "12:cjc040_0792"
    INDEX 01 01:52:10
  TRACK 68 AUDIO
    TITLE "0:"
    INDEX 01 01:53:61
  TRACK 69 AUDIO
    TITLE "13:cjc040_0793"
    INDEX 01 01:54:46
  TRACK 70 AUDIO
    TITLE "0:"
    INDEX 01 01:56:26
  TRACK 71 AUDIO
    TITLE "14:cjc040_0794"
    INDEX 01 01:57:08
  TRACK 72 AUDIO
    TITLE "0:"
    INDEX 01 02:01:48
  TRACK 73 AUDIO
    TITLE "12:cjc040_0795"
    INDEX 01 02:02:26
  TRACK 74 AUDIO
    TITLE "0:"
    INDEX 01 02:04:04
  TRACK 75 AUDIO
    TITLE "13:cjc040_0796"
    INDEX 01 02:04:55
  TRACK 76 AUDIO
    TITLE "0:"
    INDEX 01 02:07:04
  TRACK 77 AUDIO
    TITLE "14:cjc040_0797"
    INDEX 01 02:07:55
  TRACK 78 AUDIO
    TITLE "0:"
    INDEX 01 02:11:39
  TRACK 79 AUDIO
    TITLE "12:cjc040_0798"
    INDEX 01 02:12:15
  TRACK 80 AUDIO
    TITLE "0:"
    INDEX 01 02:13:56
  TRACK 81 AUDIO
    TITLE "13:cjc040_0799"
    INDEX 01 02:14:37
  TRACK 82 AUDIO
    TITLE "0:"
    INDEX 01 02:16:38
  TRACK 83 AUDIO
    TITLE "14:cjc040_0800"
    INDEX 01 02:17:14
  TRACK 84 AUDIO
    TITLE "0:"
    INDEX 01 02:21:35
